<svg width="24" height="24" viewBox="0 0 24 24" fill="none" xmlns="http://www.w3.org/2000/svg">
<path d="M18.7108 8.2958C18.6178 8.20207 18.5072 8.12768 18.3854 8.07691C18.2635 8.02614 18.1328 8 18.0008 8C17.8688 8 17.7381 8.02614 17.6162 8.07691C17.4944 8.12768 17.3838 8.20207 17.2908 8.2958L12.7108 12.8758C12.6178 12.9695 12.5072 13.0439 12.3854 13.0947C12.2635 13.1454 12.1328 13.1716 12.0008 13.1716C11.8688 13.1716 11.7381 13.1454 11.6162 13.0947C11.4944 13.0439 11.3838 12.9695 11.2908 12.8758L6.71079 8.2958C6.61783 8.20207 6.50723 8.12768 6.38537 8.07691C6.26351 8.02614 6.1328 8 6.00079 8C5.86878 8 5.73808 8.02614 5.61622 8.07691C5.49436 8.12768 5.38376 8.20207 5.29079 8.2958C5.10454 8.48316 5 8.73661 5 9.0008C5 9.26498 5.10454 9.51843 5.29079 9.70579L9.88079 14.2958C10.4433 14.8576 11.2058 15.1731 12.0008 15.1731C12.7958 15.1731 13.5583 14.8576 14.1208 14.2958L18.7108 9.70579C18.897 9.51843 19.0016 9.26498 19.0016 9.0008C19.0016 8.73661 18.897 8.48316 18.7108 8.2958Z" fill="#303030"/>
</svg>
