<svg width="24" height="24" viewBox="0 0 24 24" fill="none" xmlns="http://www.w3.org/2000/svg">
<g clip-path="url(#clip0_1279_47302)">
<path d="M17.17 24C17.0384 24.0007 16.9079 23.9755 16.7861 23.9257C16.6642 23.876 16.5534 23.8027 16.46 23.71L8.28998 15.54C7.82435 15.0755 7.45492 14.5238 7.20286 13.9163C6.95079 13.3089 6.82104 12.6577 6.82104 12C6.82104 11.3423 6.95079 10.6911 7.20286 10.0837C7.45492 9.4762 7.82435 8.92445 8.28998 8.45999L16.46 0.290002C16.5532 0.196764 16.6639 0.122803 16.7857 0.0723425C16.9076 0.0218822 17.0381 -0.00408935 17.17 -0.00408936C17.3018 -0.00408936 17.4324 0.0218822 17.5542 0.0723425C17.6761 0.122803 17.7867 0.196764 17.88 0.290002C17.9732 0.38324 18.0472 0.49393 18.0976 0.615752C18.1481 0.737574 18.1741 0.868142 18.1741 1C18.1741 1.13186 18.1481 1.26243 18.0976 1.38425C18.0472 1.50607 17.9732 1.61676 17.88 1.71L9.70998 9.87999C9.14818 10.4425 8.83262 11.205 8.83262 12C8.83262 12.795 9.14818 13.5575 9.70998 14.12L17.88 22.29C17.9737 22.3829 18.0481 22.4935 18.0989 22.6154C18.1496 22.7373 18.1758 22.868 18.1758 23C18.1758 23.132 18.1496 23.2627 18.0989 23.3846C18.0481 23.5064 17.9737 23.617 17.88 23.71C17.7865 23.8027 17.6757 23.876 17.5539 23.9257C17.4321 23.9755 17.3016 24.0007 17.17 24Z" fill="#303030"/>
</g>
<defs>
<clipPath id="clip0_1279_47302">
<rect width="24" height="24" fill="white"/>
</clipPath>
</defs>
</svg>
