<svg width="24" height="24" viewBox="0 0 24 24" fill="none" xmlns="http://www.w3.org/2000/svg">
<path d="M19.8048 4.19519C19.6798 4.07021 19.5102 4 19.3335 4C19.1567 4 18.9871 4.07021 18.8621 4.19519L12 11.0573L5.13788 4.19519C5.01286 4.07021 4.84332 4 4.66654 4C4.48976 4 4.32022 4.07021 4.19519 4.19519C4.07021 4.32022 4 4.48976 4 4.66654C4 4.84332 4.07021 5.01286 4.19519 5.13788L11.0573 12L4.19519 18.8621C4.07021 18.9871 4 19.1567 4 19.3335C4 19.5102 4.07021 19.6798 4.19519 19.8048C4.32022 19.9298 4.48976 20 4.66654 20C4.84332 20 5.01286 19.9298 5.13788 19.8048L12 12.9427L18.8621 19.8048C18.9871 19.9298 19.1567 20 19.3335 20C19.5102 20 19.6798 19.9298 19.8048 19.8048C19.9298 19.6798 20 19.5102 20 19.3335C20 19.1567 19.9298 18.9871 19.8048 18.8621L12.9427 12L19.8048 5.13788C19.9298 5.01286 20 4.84332 20 4.66654C20 4.48976 19.9298 4.32022 19.8048 4.19519Z" fill="#303030"/>
<path fill-rule="evenodd" clip-rule="evenodd" d="M3.84169 3.84159C4.06048 3.62287 4.35717 3.5 4.66654 3.5C4.9759 3.5 5.27259 3.62287 5.49138 3.84159L12 10.3502L18.5086 3.84164C18.7274 3.62292 19.0241 3.5 19.3335 3.5C19.6428 3.5 19.9395 3.62287 20.1583 3.84159C20.377 4.06037 20.5 4.35718 20.5 4.66654C20.5 4.9759 20.3771 5.27259 20.1584 5.49138L13.6498 12L20.1584 18.5086C20.3771 18.7274 20.5 19.0241 20.5 19.3335C20.5 19.6428 20.3771 19.9395 20.1584 20.1583C19.9396 20.377 19.6428 20.5 19.3335 20.5C19.0241 20.5 18.7274 20.3771 18.5086 20.1584L12 13.6498L5.49143 20.1584C5.27265 20.3771 4.9759 20.5 4.66654 20.5C4.35718 20.5 4.06048 20.3771 3.84169 20.1584C3.62298 19.9396 3.5 19.6428 3.5 19.3335C3.5 19.0241 3.62287 18.7274 3.84159 18.5086L10.3502 12L3.84164 5.49143C3.62292 5.27265 3.5 4.9759 3.5 4.66654C3.5 4.35717 3.62298 4.06037 3.84169 3.84159ZM19.4513 19.4512C19.4825 19.42 19.5 19.3776 19.5 19.3335C19.5 19.2893 19.4825 19.2469 19.4513 19.2157" fill="#303030"/>
</svg>
