<svg width="24" height="24" viewBox="0 0 24 24" fill="none" xmlns="http://www.w3.org/2000/svg">
<g clip-path="url(#clip0_1457_23380)">
<path d="M22.3189 4.43107L8.49988 18.2491C8.40697 18.3423 8.29655 18.4164 8.17497 18.4669C8.05339 18.5174 7.92303 18.5434 7.79138 18.5434C7.65972 18.5434 7.52937 18.5174 7.40778 18.4669C7.2862 18.4164 7.17579 18.3423 7.08288 18.2491L1.73888 12.9001C1.64597 12.8068 1.53555 12.7328 1.41397 12.6823C1.29239 12.6318 1.16203 12.6058 1.03038 12.6058C0.898723 12.6058 0.768365 12.6318 0.646783 12.6823C0.5252 12.7328 0.414787 12.8068 0.321877 12.9001C0.2286 12.993 0.154588 13.1034 0.104086 13.225C0.0535845 13.3466 0.0275879 13.4769 0.0275879 13.6086C0.0275879 13.7402 0.0535845 13.8706 0.104086 13.9922C0.154588 14.1137 0.2286 14.2242 0.321877 14.3171L5.66788 19.6621C6.23182 20.225 6.99607 20.5411 7.79288 20.5411C8.58968 20.5411 9.35393 20.225 9.91788 19.6621L23.7359 5.84707C23.829 5.75418 23.9029 5.64383 23.9533 5.52234C24.0037 5.40085 24.0297 5.2706 24.0297 5.13907C24.0297 5.00753 24.0037 4.87729 23.9533 4.7558C23.9029 4.63431 23.829 4.52396 23.7359 4.43107C23.643 4.33779 23.5326 4.26378 23.411 4.21328C23.2894 4.16278 23.159 4.13678 23.0274 4.13678C22.8957 4.13678 22.7654 4.16278 22.6438 4.21328C22.5222 4.26378 22.4118 4.33779 22.3189 4.43107Z" fill="#303030"/>
</g>
<defs>
<clipPath id="clip0_1457_23380">
<rect width="24" height="24" fill="white"/>
</clipPath>
</defs>
</svg>
