<svg width="24" height="24" viewBox="0 0 24 24" fill="none" xmlns="http://www.w3.org/2000/svg">
<g clip-path="url(#clip0_537_5267)">
<path d="M19 2.00015H9.95596C9.19418 1.99779 8.44207 2.17073 7.75782 2.50557C7.07357 2.84041 6.47553 3.32818 6.00996 3.93115L0.209962 11.3861C0.0734069 11.5617 -0.000732422 11.7777 -0.000732422 12.0001C-0.000732422 12.2225 0.0734069 12.4386 0.209962 12.6141L6.00996 20.0691C6.47553 20.6721 7.07357 21.1599 7.75782 21.4947C8.44207 21.8296 9.19418 22.0025 9.95596 22.0001H19C20.3256 21.9986 21.5964 21.4713 22.5337 20.5339C23.4711 19.5966 23.9984 18.3257 24 17.0001V7.00015C23.9984 5.67455 23.4711 4.4037 22.5337 3.46637C21.5964 2.52903 20.3256 2.00173 19 2.00015ZM22 17.0001C22 17.7958 21.6839 18.5589 21.1213 19.1215C20.5587 19.6841 19.7956 20.0001 19 20.0001H9.95596C9.49887 20.0017 9.04754 19.8981 8.63691 19.6973C8.22628 19.4965 7.86737 19.2039 7.58796 18.8421L2.26696 12.0001L7.58796 5.15815C7.86737 4.79639 8.22628 4.50378 8.63691 4.30298C9.04754 4.10217 9.49887 3.99856 9.95596 4.00015H19C19.7956 4.00015 20.5587 4.31622 21.1213 4.87883C21.6839 5.44143 22 6.2045 22 7.00015V17.0001ZM17.207 10.2071L15.414 12.0001L17.207 13.7931C17.3025 13.8854 17.3787 13.9957 17.4311 14.1177C17.4835 14.2397 17.5111 14.371 17.5122 14.5037C17.5134 14.6365 17.4881 14.7682 17.4378 14.8911C17.3875 15.014 17.3132 15.1256 17.2194 15.2195C17.1255 15.3134 17.0138 15.3877 16.8909 15.438C16.768 15.4882 16.6363 15.5136 16.5036 15.5124C16.3708 15.5112 16.2396 15.4837 16.1176 15.4312C15.9956 15.3788 15.8852 15.3027 15.793 15.2071L14 13.4141L12.207 15.2071C12.0184 15.3893 11.7658 15.4901 11.5036 15.4878C11.2414 15.4855 10.9906 15.3804 10.8051 15.195C10.6197 15.0096 10.5146 14.7587 10.5123 14.4965C10.51 14.2344 10.6108 13.9817 10.793 13.7931L12.586 12.0001L10.793 10.2071C10.6108 10.0185 10.51 9.76594 10.5123 9.50375C10.5146 9.24155 10.6197 8.99074 10.8051 8.80533C10.9906 8.61992 11.2414 8.51475 11.5036 8.51247C11.7658 8.51019 12.0184 8.61099 12.207 8.79315L14 10.5861L15.793 8.79315C15.9816 8.61099 16.2342 8.51019 16.4964 8.51247C16.7586 8.51475 17.0094 8.61992 17.1948 8.80533C17.3802 8.99074 17.4854 9.24155 17.4876 9.50375C17.4899 9.76594 17.3891 10.0185 17.207 10.2071Z" fill="#303030"/>
</g>
<defs>
<clipPath id="clip0_537_5267">
<rect width="24" height="24" fill="white"/>
</clipPath>
</defs>
</svg>
