<svg width="24" height="24" viewBox="0 0 24 24" fill="none" xmlns="http://www.w3.org/2000/svg">
<g clip-path="url(#clip0_951_20494)">
<path d="M21.155 3.272L18.871 0.913C18.5905 0.624966 18.2553 0.39584 17.8851 0.239061C17.5149 0.0822824 17.1171 0.00100643 16.715 0L12 0C10.8478 0.00145452 9.73132 0.40009 8.83875 1.12872C7.94618 1.85735 7.3321 2.87141 7.1 4H7C5.67441 4.00159 4.40356 4.52888 3.46622 5.46622C2.52888 6.40356 2.00159 7.67441 2 9V19C2.00159 20.3256 2.52888 21.5964 3.46622 22.5338C4.40356 23.4711 5.67441 23.9984 7 24H13C14.3256 23.9984 15.5964 23.4711 16.5338 22.5338C17.4711 21.5964 17.9984 20.3256 18 19V18.9C19.1286 18.6679 20.1427 18.0538 20.8713 17.1613C21.5999 16.2687 21.9985 15.1522 22 14V5.36C22.0015 4.58042 21.6983 3.83112 21.155 3.272ZM13 22H7C6.20435 22 5.44129 21.6839 4.87868 21.1213C4.31607 20.5587 4 19.7956 4 19V9C4 8.20435 4.31607 7.44129 4.87868 6.87868C5.44129 6.31607 6.20435 6 7 6V14C7.00159 15.3256 7.52888 16.5964 8.46622 17.5338C9.40356 18.4711 10.6744 18.9984 12 19H16C16 19.7956 15.6839 20.5587 15.1213 21.1213C14.5587 21.6839 13.7957 22 13 22ZM17 17H12C11.2044 17 10.4413 16.6839 9.87868 16.1213C9.31607 15.5587 9 14.7956 9 14V5C9 4.20435 9.31607 3.44129 9.87868 2.87868C10.4413 2.31607 11.2044 2 12 2H16V4C16 4.53043 16.2107 5.03914 16.5858 5.41421C16.9609 5.78929 17.4696 6 18 6H20V14C20 14.7956 19.6839 15.5587 19.1213 16.1213C18.5587 16.6839 17.7957 17 17 17Z" fill="#303030"/>
</g>
<defs>
<clipPath id="clip0_951_20494">
<rect width="24" height="24" fill="white"/>
</clipPath>
</defs>
</svg>
