<svg width="24" height="24" viewBox="0 0 24 24" fill="none" xmlns="http://www.w3.org/2000/svg">
<g clip-path="url(#clip0_943_11994)">
<path d="M18.6563 0.930255L6.46426 13.1223C5.99861 13.5854 5.62944 14.1363 5.37815 14.7431C5.12685 15.3499 4.99841 16.0005 5.00026 16.6573V18.0003C5.00026 18.2655 5.10562 18.5198 5.29316 18.7074C5.48069 18.8949 5.73505 19.0003 6.00026 19.0003H7.34326C8.00003 19.0021 8.65063 18.8737 9.25742 18.6224C9.86421 18.3711 10.4151 18.0019 10.8783 17.5363L23.0703 5.34425C23.6547 4.75843 23.9828 3.96473 23.9828 3.13726C23.9828 2.30978 23.6547 1.51608 23.0703 0.930255C22.4759 0.362149 21.6854 0.045105 20.8633 0.045105C20.0411 0.045105 19.2506 0.362149 18.6563 0.930255ZM21.6563 3.93026L9.46426 16.1223C8.90039 16.6827 8.13827 16.9982 7.34326 17.0003H7.00026V16.6573C7.00235 15.8622 7.31783 15.1001 7.87826 14.5363L20.0703 2.34426C20.2839 2.14021 20.5679 2.02635 20.8633 2.02635C21.1587 2.02635 21.4427 2.14021 21.6563 2.34426C21.8662 2.55477 21.9841 2.83995 21.9841 3.13726C21.9841 3.43456 21.8662 3.71974 21.6563 3.93026Z" fill="#303030"/>
<path d="M23 8.979C22.7348 8.979 22.4804 9.08436 22.2929 9.27189C22.1054 9.45943 22 9.71379 22 9.979V15H18C17.2044 15 16.4413 15.3161 15.8787 15.8787C15.3161 16.4413 15 17.2044 15 18V22H5C4.20435 22 3.44129 21.6839 2.87868 21.1213C2.31607 20.5587 2 19.7957 2 19V5C2 4.20435 2.31607 3.44129 2.87868 2.87868C3.44129 2.31607 4.20435 2 5 2H14.042C14.3072 2 14.5616 1.89464 14.7491 1.70711C14.9366 1.51957 15.042 1.26522 15.042 1C15.042 0.734784 14.9366 0.48043 14.7491 0.292893C14.5616 0.105357 14.3072 0 14.042 0L5 0C3.67441 0.00158786 2.40356 0.528882 1.46622 1.46622C0.528882 2.40356 0.00158786 3.67441 0 5L0 19C0.00158786 20.3256 0.528882 21.5964 1.46622 22.5338C2.40356 23.4711 3.67441 23.9984 5 24H16.343C16.9999 24.0019 17.6507 23.8735 18.2576 23.6222C18.8646 23.3709 19.4157 23.0017 19.879 22.536L22.535 19.878C23.0008 19.4149 23.37 18.864 23.6215 18.2572C23.873 17.6504 24.0016 16.9998 24 16.343V9.979C24 9.71379 23.8946 9.45943 23.7071 9.27189C23.5196 9.08436 23.2652 8.979 23 8.979ZM18.465 21.122C18.063 21.523 17.5547 21.8006 17 21.922V18C17 17.7348 17.1054 17.4804 17.2929 17.2929C17.4804 17.1054 17.7348 17 18 17H21.925C21.8013 17.5535 21.524 18.0609 21.125 18.464L18.465 21.122Z" fill="#303030"/>
</g>
<defs>
<clipPath id="clip0_943_11994">
<rect width="24" height="24" fill="white"/>
</clipPath>
</defs>
</svg>
