<svg width="24" height="20" viewBox="0 0 24 20" fill="none" xmlns="http://www.w3.org/2000/svg">
<g clip-path="url(#clip0_1262_14614)">
<path d="M19 0.833191H5C3.67441 0.834514 2.40356 1.27393 1.46622 2.05504C0.528882 2.83616 0.00158786 3.89519 0 4.99986L0 14.9999C0.00158786 16.1045 0.528882 17.1636 1.46622 17.9447C2.40356 18.7258 3.67441 19.1652 5 19.1665H19C20.3256 19.1652 21.5964 18.7258 22.5338 17.9447C23.4711 17.1636 23.9984 16.1045 24 14.9999V4.99986C23.9984 3.89519 23.4711 2.83616 22.5338 2.05504C21.5964 1.27393 20.3256 0.834514 19 0.833191ZM5 2.49986H19C19.5988 2.50084 20.1835 2.65112 20.679 2.93136C21.1744 3.2116 21.5579 3.60898 21.78 4.07236L14.122 10.4549C13.5584 10.9226 12.7954 11.1852 12 11.1852C11.2046 11.1852 10.4416 10.9226 9.878 10.4549L2.22 4.07236C2.44215 3.60898 2.82561 3.2116 3.32105 2.93136C3.81648 2.65112 4.40121 2.50084 5 2.49986ZM19 17.4999H5C4.20435 17.4999 3.44129 17.2365 2.87868 16.7676C2.31607 16.2988 2 15.6629 2 14.9999V6.24986L8.464 11.6332C9.40263 12.4134 10.6743 12.8516 12 12.8516C13.3257 12.8516 14.5974 12.4134 15.536 11.6332L22 6.24986V14.9999C22 15.6629 21.6839 16.2988 21.1213 16.7676C20.5587 17.2365 19.7956 17.4999 19 17.4999Z" fill="#303030"/>
</g>
<defs>
<clipPath id="clip0_1262_14614">
<rect width="24" height="20" fill="white"/>
</clipPath>
</defs>
</svg>
