<svg width="24" height="24" viewBox="0 0 24 24" fill="none" xmlns="http://www.w3.org/2000/svg">
<path fill-rule="evenodd" clip-rule="evenodd" d="M9.18509 2.878C10.436 0.71132 13.5643 0.71132 14.8152 2.878L22.1693 15.6263C23.4186 17.7927 21.855 20.5 19.3551 20.5H4.64512C2.14483 20.5 0.58015 17.7933 1.83092 15.6263C1.83086 15.6264 1.83098 15.6262 1.83092 15.6263L9.18509 2.878ZM10.9172 3.87798L3.56333 16.6257C3.08241 17.4587 3.68353 18.5 4.64512 18.5H19.3551C20.3152 18.5 20.9175 17.4592 20.4369 16.6257C20.4369 16.6256 20.4369 16.6257 20.4369 16.6257L13.0831 3.87798C12.602 3.04466 11.3983 3.04466 10.9172 3.87798ZM12.0001 7.99999C12.5524 7.99999 13.0001 8.44771 13.0001 8.99999V12.75C13.0001 13.3023 12.5524 13.75 12.0001 13.75C11.4478 13.75 11.0001 13.3023 11.0001 12.75V8.99999C11.0001 8.44771 11.4478 7.99999 12.0001 7.99999ZM11.0001 15.75C11.0001 15.1977 11.4478 14.75 12.0001 14.75H12.0071C12.5594 14.75 13.0071 15.1977 13.0071 15.75V15.758C13.0071 16.3103 12.5594 16.758 12.0071 16.758H12.0001C11.4478 16.758 11.0001 16.3103 11.0001 15.758V15.75Z" fill="#303030"/>
</svg>
