<svg width="24" height="24" viewBox="0 0 24 24" fill="none" xmlns="http://www.w3.org/2000/svg">
<g clip-path="url(#clip0_690_8430)">
<path d="M23.2708 9.41879C22.3681 7.94051 21.2293 6.62004 19.8998 5.50979L22.6998 2.70979C22.882 2.52119 22.9828 2.26858 22.9805 2.00639C22.9782 1.74419 22.873 1.49338 22.6876 1.30797C22.5022 1.12256 22.2514 1.01739 21.9892 1.01511C21.727 1.01284 21.4744 1.11363 21.2858 1.29579L18.2408 4.34479C16.3532 3.22361 14.1952 2.63925 11.9998 2.65479C5.80881 2.65479 2.28081 6.89279 0.728807 9.41879C0.249335 10.1943 -0.00463867 11.088 -0.00463867 11.9998C-0.00463867 12.9115 0.249335 13.8053 0.728807 14.5808C1.63156 16.0591 2.7703 17.3795 4.09981 18.4898L1.29981 21.2898C1.2043 21.382 1.12811 21.4924 1.07571 21.6144C1.0233 21.7364 0.99571 21.8676 0.994557 22.0004C0.993403 22.1332 1.0187 22.2648 1.06899 22.3877C1.11927 22.5106 1.19352 22.6223 1.28741 22.7162C1.3813 22.8101 1.49296 22.8843 1.61585 22.9346C1.73875 22.9849 1.87043 23.0102 2.00321 23.009C2.13599 23.0079 2.26721 22.9803 2.38921 22.9279C2.51122 22.8755 2.62156 22.7993 2.71381 22.7038L5.76581 19.6518C7.65107 20.7728 9.80648 21.3581 11.9998 21.3448C18.1908 21.3448 21.7188 17.1068 23.2708 14.5808C23.7503 13.8053 24.0043 12.9115 24.0043 11.9998C24.0043 11.088 23.7503 10.1943 23.2708 9.41879ZM2.43281 13.5338C2.14794 13.0728 1.99706 12.5417 1.99706 11.9998C1.99706 11.4579 2.14794 10.9267 2.43281 10.4658C3.76681 8.29979 6.78181 4.65479 11.9998 4.65479C13.6601 4.64549 15.297 5.04563 16.7658 5.81979L14.7528 7.83279C13.7927 7.19539 12.6417 6.90978 11.495 7.02443C10.3484 7.13908 9.27667 7.64693 8.46181 8.46179C7.64695 9.27665 7.1391 10.3483 7.02445 11.495C6.9098 12.6417 7.19541 13.7927 7.83281 14.7528L5.52281 17.0628C4.29791 16.0725 3.25264 14.8787 2.43281 13.5338ZM14.9998 11.9998C14.9998 12.7954 14.6837 13.5585 14.1211 14.1211C13.5585 14.6837 12.7955 14.9998 11.9998 14.9998C11.5543 14.9981 11.115 14.8955 10.7148 14.6998L14.6998 10.7148C14.8955 11.115 14.9981 11.5543 14.9998 11.9998ZM8.99981 11.9998C8.99981 11.2041 9.31588 10.4411 9.87849 9.87847C10.4411 9.31586 11.2042 8.99979 11.9998 8.99979C12.4453 9.00151 12.8846 9.10408 13.2848 9.29979L9.29981 13.2848C9.1041 12.8846 9.00153 12.4453 8.99981 11.9998ZM21.5668 13.5338C20.2328 15.6998 17.2178 19.3448 11.9998 19.3448C10.3395 19.3541 8.70257 18.954 7.23381 18.1798L9.24681 16.1668C10.2069 16.8042 11.3579 17.0898 12.5046 16.9751C13.6512 16.8605 14.7229 16.3526 15.5378 15.5378C16.3527 14.7229 16.8605 13.6512 16.9752 12.5046C17.0898 11.3579 16.8042 10.2069 16.1668 9.24679L18.4768 6.93679C19.7017 7.92707 20.747 9.12084 21.5668 10.4658C21.8517 10.9267 22.0026 11.4579 22.0026 11.9998C22.0026 12.5417 21.8517 13.0728 21.5668 13.5338Z" fill="#303030"/>
</g>
<defs>
<clipPath id="clip0_690_8430">
<rect width="24" height="24" fill="white"/>
</clipPath>
</defs>
</svg>
