<svg width="24" height="24" viewBox="0 0 24 24" fill="none" xmlns="http://www.w3.org/2000/svg">
<g clip-path="url(#clip0_1262_14615)">
<path d="M19.95 5.53639L16.464 2.05039C15.8156 1.39847 15.0443 0.881615 14.1948 0.529734C13.3453 0.177854 12.4345 -0.00206435 11.515 0.000391007H7C5.67441 0.00197886 4.40356 0.529273 3.46622 1.46661C2.52888 2.40395 2.00159 3.6748 2 5.00039V19.0004C2.00159 20.326 2.52888 21.5968 3.46622 22.5342C4.40356 23.4715 5.67441 23.9988 7 24.0004H17C18.3256 23.9988 19.5964 23.4715 20.5338 22.5342C21.4711 21.5968 21.9984 20.326 22 19.0004V10.4854C22.0025 9.56591 21.8225 8.65507 21.4707 7.80558C21.1188 6.95609 20.6019 6.18481 19.95 5.53639ZM18.536 6.95039C18.841 7.2648 19.1036 7.6178 19.317 8.00039H15C14.7348 8.00039 14.4804 7.89503 14.2929 7.7075C14.1054 7.51996 14 7.26561 14 7.00039V2.68339C14.3826 2.89678 14.7356 3.15934 15.05 3.46439L18.536 6.95039ZM20 19.0004C20 19.796 19.6839 20.5591 19.1213 21.1217C18.5587 21.6843 17.7956 22.0004 17 22.0004H7C6.20435 22.0004 5.44129 21.6843 4.87868 21.1217C4.31607 20.5591 4 19.796 4 19.0004V5.00039C4 4.20474 4.31607 3.44168 4.87868 2.87907C5.44129 2.31646 6.20435 2.00039 7 2.00039H11.515C11.68 2.00039 11.838 2.03239 12 2.04739V7.00039C12 7.79604 12.3161 8.5591 12.8787 9.12171C13.4413 9.68432 14.2044 10.0004 15 10.0004H19.953C19.968 10.1624 20 10.3204 20 10.4854V19.0004ZM16.724 13.3114C16.9066 13.5035 17.0055 13.7602 16.9989 14.0251C16.9924 14.2901 16.8809 14.5416 16.689 14.7244L13.1 18.1384C12.5358 18.6937 11.7751 19.0035 10.9835 19.0003C10.1919 18.9971 9.43367 18.6812 8.874 18.1214L7.334 16.7474C7.13588 16.5708 7.01605 16.3227 7.00086 16.0577C6.99334 15.9265 7.01173 15.7951 7.055 15.671C7.09826 15.5469 7.16554 15.4325 7.253 15.3344C7.34046 15.2363 7.44639 15.1564 7.56473 15.0992C7.68307 15.0421 7.81151 15.0088 7.94272 15.0013C8.20771 14.9861 8.46788 15.0768 8.666 15.2534L10.251 16.6674C10.3417 16.7693 10.4524 16.8515 10.5761 16.9091C10.6998 16.9666 10.834 16.9982 10.9704 17.002C11.1067 17.0057 11.2425 16.9815 11.3691 16.9309C11.4958 16.8802 11.6108 16.8042 11.707 16.7074L15.307 13.2764C15.4022 13.1854 15.5144 13.1141 15.6373 13.0665C15.7601 13.019 15.8911 12.9962 16.0228 12.9995C16.1544 13.0027 16.2842 13.032 16.4045 13.0855C16.5248 13.139 16.6334 13.2158 16.724 13.3114Z" fill="#303030"/>
</g>
<defs>
<clipPath id="clip0_1262_14615">
<rect width="24" height="24" fill="white"/>
</clipPath>
</defs>
</svg>
