<svg width="24" height="24" viewBox="0 0 24 24" fill="none" xmlns="http://www.w3.org/2000/svg">
<path d="M19 2.00008H13C13 2.00008 12.9314 2.00041 12.7071 2.00041C12.5 2.00041 12.2652 2.00041 12 2.00041C11.7348 2.00041 12 2.00044 11.5 2.00044C11 2.00037 11.5 2.00037 11 2L5 2.00008C3.67441 2.00167 2.40356 2.52897 1.46622 3.4663C0.528882 4.40364 0.00158786 5.67449 0 7.00008V11.0001C0.00158786 12.3257 0.528882 13.5965 1.46622 14.5339C2.40356 15.4712 3.67441 15.9985 5 16.0001H19C20.3256 15.9985 21.5964 15.4712 22.5338 14.5339C23.4711 13.5965 23.9984 12.3257 24 11.0001V7.00008C23.9984 5.67449 23.4711 4.40364 22.5338 3.4663C21.5964 2.52897 20.3256 2.00167 19 2.00008ZM22 11.0001C22 11.7957 21.6839 12.5588 21.1213 13.1214C20.5587 13.684 19.7956 14.0001 19 14.0001H5C4.20435 14.0001 3.44129 13.684 2.87868 13.1214C2.31607 12.5588 2 11.7957 2 11.0001V7.00008C2 6.20444 2.31607 5.44137 2.87868 4.87876C3.44129 4.31615 4.20435 4.00008 5 4.00008H19C19.7956 4.00008 20.5587 4.31615 21.1213 4.87876C21.6839 5.44137 22 6.20444 22 7.00008V11.0001Z" fill="#303030"/>
<path d="M15.0002 10H9.00024C8.73503 10 8.48067 10.1054 8.29314 10.2929C8.1056 10.4804 8.00024 10.7348 8.00024 11C8.00024 11.2652 8.1056 11.5196 8.29314 11.7071C8.48067 11.8947 8.73503 12 9.00024 12H15.0002C15.2654 12 15.5198 11.8947 15.7073 11.7071C15.8949 11.5196 16.0002 11.2652 16.0002 11C16.0002 10.7348 15.8949 10.4804 15.7073 10.2929C15.5198 10.1054 15.2654 10 15.0002 10Z" fill="#303030"/>
<path d="M10 8.00061H11C11.2652 8.00061 11.5196 7.89525 11.7071 7.70771C11.8946 7.52018 12 7.26582 12 7.00061C12 6.73539 11.8946 6.48104 11.7071 6.2935C11.5196 6.10597 11.2652 6.00061 11 6.00061H10C9.73478 6.00061 9.48043 6.10597 9.29289 6.2935C9.10536 6.48104 9 6.73539 9 7.00061C9 7.26582 9.10536 7.52018 9.29289 7.70771C9.48043 7.89525 9.73478 8.00061 10 8.00061Z" fill="#303030"/>
<path d="M19.0002 6.00061H15.0002C14.735 6.00061 14.4807 6.10597 14.2931 6.2935C14.1056 6.48104 14.0002 6.73539 14.0002 7.00061C14.0002 7.26582 14.1056 7.52018 14.2931 7.70771C14.4807 7.89525 14.735 8.00061 15.0002 8.00061H19.0002C19.2655 8.00061 19.5198 7.89525 19.7074 7.70771C19.8949 7.52018 20.0002 7.26582 20.0002 7.00061C20.0002 6.73539 19.8949 6.48104 19.7074 6.2935C19.5198 6.10597 19.2655 6.00061 19.0002 6.00061Z" fill="#303030"/>
<path d="M6 6.00061H5C4.73478 6.00061 4.48043 6.10597 4.29289 6.2935C4.10536 6.48104 4 6.73539 4 7.00061C4 7.26582 4.10536 7.52018 4.29289 7.70771C4.48043 7.89525 4.73478 8.00061 5 8.00061H6C6.26522 8.00061 6.51957 7.89525 6.70711 7.70771C6.89464 7.52018 7 7.26582 7 7.00061C7 6.73539 6.89464 6.48104 6.70711 6.2935C6.51957 6.10597 6.26522 6.00061 6 6.00061Z" fill="#303030"/>
<path d="M5 12C5.55228 12 6 11.5523 6 11C6 10.4477 5.55228 10 5 10C4.44771 10 4 10.4477 4 11C4 11.5523 4.44771 12 5 12Z" fill="#303030"/>
<path d="M19 12C19.5523 12 20 11.5523 20 11C20 10.4477 19.5523 10 19 10C18.4477 10 18 10.4477 18 11C18 11.5523 18.4477 12 19 12Z" fill="#303030"/>
<path fill-rule="evenodd" clip-rule="evenodd" d="M6.14251 17.4855C6.42666 17.0119 7.04092 16.8584 7.5145 17.1425L11.4855 19.5251C11.8022 19.7151 12.1978 19.7151 12.5145 19.5251L16.4855 17.1425C16.9591 16.8584 17.5733 17.0119 17.8575 17.4855C18.1416 17.9591 17.9881 18.5733 17.5145 18.8575L13.5435 21.2401C12.5934 21.8101 11.4066 21.8101 10.4565 21.2401L6.4855 18.8575C6.01192 18.5733 5.85836 17.9591 6.14251 17.4855Z" fill="#303030"/>
</svg>
