<svg width="24" height="24" viewBox="0 0 24 24" fill="none" xmlns="http://www.w3.org/2000/svg">
<g clip-path="url(#clip0_943_7976)">
<path d="M20.4572 4.5551L12.4862 0.126102C12.3376 0.0434421 12.1703 6.10352e-05 12.0002 6.10352e-05C11.8302 6.10352e-05 11.6629 0.0434421 11.5142 0.126102L3.54324 4.5551C3.07565 4.81489 2.68602 5.19499 2.41472 5.656C2.14342 6.11701 2.00032 6.64218 2.00024 7.1771V19.0001C2.00183 20.3257 2.52913 21.5965 3.46646 22.5339C4.4038 23.4712 5.67465 23.9985 7.00024 24.0001H17.0002C18.3258 23.9985 19.5967 23.4712 20.534 22.5339C21.4714 21.5965 21.9987 20.3257 22.0002 19.0001V7.1771C22.0002 6.64218 21.8571 6.11701 21.5858 5.656C21.3145 5.19499 20.9248 4.81489 20.4572 4.5551ZM20.0002 19.0001C20.0002 19.7958 19.6842 20.5588 19.1216 21.1214C18.559 21.684 17.7959 22.0001 17.0002 22.0001H7.00024C6.20459 22.0001 5.44153 21.684 4.87892 21.1214C4.31631 20.5588 4.00024 19.7958 4.00024 19.0001V7.1771C3.9998 6.99822 4.04735 6.82249 4.13793 6.66824C4.22851 6.51399 4.35881 6.38686 4.51524 6.3001L12.0002 2.1441L19.4862 6.3001C19.6425 6.38699 19.7726 6.51418 19.863 6.66842C19.9534 6.82266 20.0008 6.99832 20.0002 7.1771V19.0001Z" fill="#303030"/>
<path d="M12 8.50031C12.8284 8.50031 13.5 7.82873 13.5 7.00031C13.5 6.17188 12.8284 5.50031 12 5.50031C11.1716 5.50031 10.5 6.17188 10.5 7.00031C10.5 7.82873 11.1716 8.50031 12 8.50031Z" fill="#303030"/>
</g>
<defs>
<clipPath id="clip0_943_7976">
<rect width="24" height="24" fill="white"/>
</clipPath>
</defs>
</svg>
