<svg width="24" height="24" viewBox="0 0 24 24" fill="none" xmlns="http://www.w3.org/2000/svg">
<g clip-path="url(#clip0_1262_10503)">
<path d="M13.845 17.2669L10.583 20.5289C9.63594 21.4507 8.36403 21.9625 7.04247 21.9537C5.72091 21.9448 4.45597 21.416 3.52133 20.4816C2.58669 19.5472 2.05751 18.2825 2.04829 16.9609C2.03906 15.6393 2.55052 14.3673 3.47202 13.4199L6.73402 10.155C6.92153 9.96731 7.02682 9.71287 7.02672 9.4476C7.02663 9.18233 6.92116 8.92796 6.73352 8.74046C6.54588 8.55295 6.29144 8.44766 6.02617 8.44775C5.7609 8.44785 5.50653 8.55332 5.31902 8.74096L2.05802 12.0059C0.740293 13.3243 0.00026379 15.1122 0.000732645 16.9762C0.0012015 18.8402 0.74213 20.6277 2.06052 21.9454C3.37891 23.2632 5.16677 24.0032 7.03079 24.0027C8.89481 24.0022 10.6823 23.2613 12 21.9429L15.262 18.6809C15.4442 18.4923 15.545 18.2397 15.5427 17.9775C15.5404 17.7153 15.4352 17.4645 15.2498 17.2791C15.0644 17.0937 14.8136 16.9885 14.5514 16.9863C14.2892 16.984 14.0366 17.0848 13.848 17.2669H13.845Z" fill="#303030"/>
<path d="M21.944 2.06145C21.2933 1.40627 20.519 0.886731 19.666 0.532948C18.8131 0.179165 17.8984 -0.00182921 16.975 0.000451887C16.052 -0.00199984 15.1378 0.17853 14.2851 0.531603C13.4323 0.884677 12.658 1.40329 12.007 2.05745L8.73998 5.32045C8.55234 5.50796 8.44687 5.76233 8.44678 6.0276C8.44668 6.29287 8.55197 6.54731 8.73948 6.73495C8.92699 6.92259 9.18136 7.02806 9.44663 7.02816C9.7119 7.02825 9.96634 6.92296 10.154 6.73545L13.419 3.47345C13.8845 3.0051 14.4384 2.63375 15.0484 2.38091C15.6585 2.12807 16.3126 1.99875 16.973 2.00045C17.9672 2.00078 18.9391 2.29588 19.7657 2.84845C20.5922 3.40102 21.2364 4.18625 21.6168 5.10487C21.9972 6.0235 22.0967 7.03427 21.9027 8.00943C21.7087 8.98458 21.23 9.88034 20.527 10.5835L17.265 13.8455C17.0773 14.0331 16.9719 14.2876 16.9719 14.553C16.9719 14.8183 17.0773 15.0728 17.265 15.2605C17.4526 15.4481 17.7071 15.5535 17.9725 15.5535C18.2378 15.5535 18.4923 15.4481 18.68 15.2605L21.942 12.0005C23.258 10.6815 23.9973 8.89456 23.9977 7.03137C23.998 5.16818 23.2595 3.38089 21.944 2.06145Z" fill="#303030"/>
<path d="M14.2931 8.2931L8.29308 14.2931C8.19757 14.3853 8.12139 14.4957 8.06898 14.6177C8.01657 14.7397 7.98898 14.8709 7.98783 15.0037C7.98668 15.1365 8.01198 15.2681 8.06226 15.391C8.11254 15.5139 8.18679 15.6256 8.28069 15.7195C8.37458 15.8134 8.48623 15.8876 8.60913 15.9379C8.73202 15.9882 8.8637 16.0135 8.99648 16.0123C9.12926 16.0112 9.26048 15.9836 9.38249 15.9312C9.50449 15.8788 9.61483 15.8026 9.70708 15.7071L15.7071 9.7071C15.8892 9.5185 15.99 9.2659 15.9878 9.0037C15.9855 8.7415 15.8803 8.49069 15.6949 8.30528C15.5095 8.11987 15.2587 8.01471 14.9965 8.01243C14.7343 8.01015 14.4817 8.11094 14.2931 8.2931Z" fill="#303030"/>
</g>
<defs>
<clipPath id="clip0_1262_10503">
<rect width="24" height="24" fill="white"/>
</clipPath>
</defs>
</svg>
