<svg width="24" height="24" viewBox="0 0 24 24" fill="none" xmlns="http://www.w3.org/2000/svg">
<g clip-path="url(#clip0_1258_13561)">
<path d="M13.9322 4C14.7457 4.00079 15.5256 4.32428 16.1008 4.89947C16.676 5.47466 16.9994 6.25456 17.0002 7.068C17.0002 7.33322 17.1056 7.58757 17.2931 7.77511C17.4807 7.96264 17.735 8.068 18.0002 8.068C18.2655 8.068 18.5198 7.96264 18.7074 7.77511C18.8949 7.58757 19.0002 7.33322 19.0002 7.068V7C19.0002 6.981 19.0002 6.964 19.0002 6.945C18.9669 5.62273 18.4184 4.36578 17.4717 3.44206C16.525 2.51833 15.2549 2.00088 13.9322 2H13.0002V1C13.0002 0.734784 12.8949 0.48043 12.7074 0.292893C12.5198 0.105357 12.2655 0 12.0002 0C11.735 0 11.4807 0.105357 11.2931 0.292893C11.1056 0.48043 11.0002 0.734784 11.0002 1V2H10.0682C8.86556 2.00128 7.70253 2.43023 6.78704 3.21018C5.87154 3.99012 5.26325 5.07022 5.0709 6.25742C4.87854 7.44462 5.11465 8.66154 5.73704 9.69066C6.35942 10.7198 7.3275 11.494 8.46824 11.875L11.0002 12.72V20H10.0682C9.2548 19.9992 8.47491 19.6757 7.89972 19.1005C7.32453 18.5253 7.00104 17.7454 7.00024 16.932C7.00024 16.6668 6.89489 16.4124 6.70735 16.2249C6.51981 16.0374 6.26546 15.932 6.00024 15.932C5.73503 15.932 5.48067 16.0374 5.29314 16.2249C5.1056 16.4124 5.00024 16.6668 5.00024 16.932V17C5.00024 17.019 5.00024 17.036 5.00024 17.055C5.03362 18.3773 5.58211 19.6342 6.52881 20.5579C7.47551 21.4817 8.74555 21.9991 10.0682 22H11.0002V23C11.0002 23.2652 11.1056 23.5196 11.2931 23.7071C11.4807 23.8946 11.735 24 12.0002 24C12.2655 24 12.5198 23.8946 12.7074 23.7071C12.8949 23.5196 13.0002 23.2652 13.0002 23V22H13.9322C15.1349 21.9987 16.298 21.5698 17.2134 20.7898C18.1289 20.0099 18.7372 18.9298 18.9296 17.7426C19.1219 16.5554 18.8858 15.3385 18.2635 14.3093C17.6411 13.2802 16.673 12.506 15.5322 12.125L13.0002 11.28V4H13.9322ZM14.9022 14.021C15.5937 14.2511 16.1806 14.7198 16.558 15.3432C16.9353 15.9666 17.0785 16.704 16.9618 17.4233C16.8451 18.1426 16.4762 18.7969 15.9211 19.269C15.366 19.7411 14.661 20.0003 13.9322 20H13.0002V13.387L14.9022 14.021ZM11.0002 10.613L9.10024 9.979C8.40898 9.74893 7.82215 9.28037 7.44478 8.65718C7.0674 8.034 6.92411 7.29685 7.04055 6.57768C7.15698 5.8585 7.52554 5.20422 8.08028 4.73194C8.63501 4.25966 9.3397 4.00021 10.0682 4H11.0002V10.613Z" fill="#303030"/>
</g>
<defs>
<clipPath id="clip0_1258_13561">
<rect width="24" height="24" fill="white"/>
</clipPath>
</defs>
</svg>
