<svg width="24" height="24" viewBox="0 0 24 24" fill="none" xmlns="http://www.w3.org/2000/svg">
<path d="M17.7101 9.88001L13.4101 5.59001C13.0353 5.21751 12.5284 5.00842 12.0001 5.00842C11.4717 5.00842 10.9648 5.21751 10.5901 5.59001L6.29006 9.88001C6.10381 10.0674 5.99927 10.3208 5.99927 10.585C5.99927 10.8492 6.10381 11.1026 6.29006 11.29C6.38302 11.3837 6.49362 11.4581 6.61548 11.5089C6.73734 11.5597 6.86805 11.5858 7.00006 11.5858C7.13207 11.5858 7.26278 11.5597 7.38464 11.5089C7.5065 11.4581 7.6171 11.3837 7.71006 11.29L11.0001 8.00001V19C11.0001 19.2652 11.1054 19.5196 11.293 19.7071C11.4805 19.8947 11.7348 20 12.0001 20C12.2653 20 12.5196 19.8947 12.7072 19.7071C12.8947 19.5196 13.0001 19.2652 13.0001 19V8.00001L16.2901 11.29C16.477 11.4783 16.7312 11.5846 16.9965 11.5856C17.2619 11.5865 17.5168 11.482 17.7051 11.295C17.8934 11.108 17.9997 10.8539 18.0006 10.5885C18.0016 10.3232 17.897 10.0683 17.7101 9.88001Z" fill="#303030"/>
</svg>
