<svg width="24" height="24" viewBox="0 0 24 24" fill="none" xmlns="http://www.w3.org/2000/svg">
<g clip-path="url(#clip0_514_4819)">
<path d="M22.5138 10.972C22.1059 10.6072 21.6246 10.3342 21.1022 10.1714C20.5799 10.0085 20.0286 9.95962 19.4858 10.028C17.2986 10.2924 15.1405 10.7577 13.0388 11.418C13.3588 8.913 15.7498 8 17.9998 8C18.7954 8 19.5585 7.68393 20.1211 7.12132C20.6837 6.55871 20.9998 5.79565 20.9998 5C20.9998 4.20435 20.6837 3.44129 20.1211 2.87868C19.5585 2.31607 18.7954 2 17.9998 2C17.0676 1.99978 16.1448 2.18649 15.286 2.54908C14.4271 2.91166 13.6498 3.44277 12.9998 4.111V1C12.9998 0.734784 12.8944 0.48043 12.7069 0.292893C12.5193 0.105357 12.265 0 11.9998 0C11.7346 0 11.4802 0.105357 11.2927 0.292893C11.1051 0.48043 10.9998 0.734784 10.9998 1V4.11C10.3496 3.44214 9.5721 2.91133 8.71333 2.54893C7.85456 2.18653 6.93188 1.99988 5.99977 2C5.20412 2 4.44106 2.31607 3.87845 2.87868C3.31584 3.44129 2.99977 4.20435 2.99977 5C2.99977 5.79565 3.31584 6.55871 3.87845 7.12132C4.44106 7.68393 5.20412 8 5.99977 8C8.24977 8 10.6408 8.913 10.9608 11.418C8.85899 10.7578 6.70088 10.2925 4.51377 10.028C3.97091 9.96001 3.41979 10.0091 2.89749 10.1719C2.37519 10.3348 1.89382 10.6076 1.48577 10.972C1.0151 11.4032 0.640903 11.929 0.387735 12.5149C0.134568 13.1009 0.00814842 13.7337 0.0167706 14.372C0.0167706 23.062 4.85177 24 6.93077 24C8.05969 23.9395 9.14086 23.5249 10.0208 22.815C10.5807 22.3407 11.2701 22.0453 11.9998 21.967C12.7294 22.0453 13.4188 22.3407 13.9788 22.815C14.8588 23.5247 15.9399 23.9393 17.0688 24C19.1478 24 23.9828 23.062 23.9828 14.375C23.9916 13.7363 23.8652 13.1029 23.6121 12.5165C23.3589 11.93 22.9846 11.4037 22.5138 10.972ZM17.9998 4C18.265 4 18.5193 4.10536 18.7069 4.29289C18.8944 4.48043 18.9998 4.73478 18.9998 5C18.9998 5.26522 18.8944 5.51957 18.7069 5.70711C18.5193 5.89464 18.265 6 17.9998 6C16.315 5.94531 14.6568 6.43098 13.2678 7.386C13.6054 6.39892 14.2429 5.54196 15.0913 4.93489C15.9397 4.32782 16.9566 4.00096 17.9998 4ZM5.99977 6C5.73455 6 5.4802 5.89464 5.29266 5.70711C5.10513 5.51957 4.99977 5.26522 4.99977 5C4.99977 4.73478 5.10513 4.48043 5.29266 4.29289C5.4802 4.10536 5.73455 4 5.99977 4C7.04305 4.0012 8.05993 4.32814 8.90843 4.93516C9.75694 5.54218 10.3947 6.399 10.7328 7.386C9.34343 6.43077 7.68492 5.9451 5.99977 6ZM17.0688 22C16.3391 21.9217 15.6497 21.6263 15.0898 21.152C14.2096 20.4426 13.1286 20.028 11.9998 19.967C10.8709 20.028 9.78992 20.4426 8.90977 21.152C8.34982 21.6263 7.66043 21.9217 6.93077 22C3.76177 22 2.01677 19.292 2.01677 14.375C2.01046 14.019 2.07834 13.6656 2.21607 13.3373C2.3538 13.009 2.55837 12.7129 2.81677 12.468C3.0122 12.2897 3.24453 12.1567 3.49722 12.0784C3.74992 12.0001 4.01676 11.9784 4.27877 12.015C6.78916 12.3104 9.25651 12.8977 11.6308 13.765C11.8695 13.8607 12.136 13.8607 12.3748 13.765C14.7485 12.8961 17.2161 12.3087 19.7268 12.015C19.9888 11.9789 20.2555 12.0008 20.5081 12.0791C20.7607 12.1573 20.9931 12.2901 21.1888 12.468C21.4474 12.7128 21.6521 13.0088 21.7898 13.3372C21.9276 13.6655 21.9953 14.019 21.9888 14.375C21.9828 19.292 20.2378 22 17.0688 22Z" fill="#303030"/>
<path d="M17.83 15.023C15.309 15.6 12 16.648 12 16.648C14.009 16.861 16.056 18.699 17.114 18.993C18.223 19.301 18.641 18.149 18.981 16.268C19.02 16.1049 19.0183 15.9348 18.9759 15.7726C18.9335 15.6104 18.8518 15.4612 18.738 15.3381C18.6242 15.215 18.4818 15.1218 18.3234 15.0669C18.1651 15.0119 17.9956 14.9968 17.83 15.023Z" fill="#303030"/>
<path d="M5.019 16.268C5.359 18.149 5.777 19.301 6.886 18.993C7.944 18.699 9.98601 16.861 12 16.648C12 16.648 8.691 15.596 6.17 15.023C6.00441 14.9968 5.83493 15.0119 5.67656 15.0669C5.51818 15.1218 5.3758 15.215 5.262 15.3381C5.1482 15.4612 5.06649 15.6104 5.02411 15.7726C4.98172 15.9348 4.97997 16.1049 5.019 16.268Z" fill="#303030"/>
</g>
<defs>
<clipPath id="clip0_514_4819">
<rect width="24" height="24" fill="white"/>
</clipPath>
</defs>
</svg>
