<svg width="24" height="24" viewBox="0 0 24 24" fill="none" xmlns="http://www.w3.org/2000/svg">
<g clip-path="url(#clip0_943_11975)">
<path d="M18.9999 23.9998H16.9999C16.7346 23.9998 16.4803 23.8945 16.2928 23.707C16.1052 23.5194 15.9999 23.2651 15.9999 22.9998C15.9999 22.7346 16.1052 22.4803 16.2928 22.2927C16.4803 22.1052 16.7346 21.9999 16.9999 21.9999H18.9999C19.7955 21.9999 20.5586 21.6838 21.1212 21.1212C21.6838 20.5586 21.9999 19.7955 21.9999 18.9999V16.9999C21.9999 16.7346 22.1052 16.4803 22.2927 16.2928C22.4803 16.1052 22.7346 15.9999 22.9998 15.9999C23.2651 15.9999 23.5194 16.1052 23.707 16.2928C23.8945 16.4803 23.9998 16.7346 23.9998 16.9999V18.9999C23.9983 20.3254 23.471 21.5963 22.5336 22.5336C21.5963 23.471 20.3254 23.9983 18.9999 23.9998Z" fill="#303030"/>
<path d="M1.00001 8.00001C0.734791 8.00001 0.480437 7.89465 0.292901 7.70711C0.105364 7.51958 7.62939e-06 7.26522 7.62939e-06 7.00001V5.00001C0.00159549 3.67441 0.52889 2.40357 1.46623 1.46623C2.40357 0.52889 3.67441 0.00159549 5.00001 7.62939e-06H7.00001C7.26522 7.62939e-06 7.51958 0.105364 7.70711 0.292901C7.89465 0.480437 8.00001 0.734791 8.00001 1.00001C8.00001 1.26522 7.89465 1.51958 7.70711 1.70711C7.51958 1.89465 7.26522 2.00001 7.00001 2.00001H5.00001C4.20436 2.00001 3.4413 2.31608 2.87869 2.87869C2.31608 3.4413 2.00001 4.20436 2.00001 5.00001V7.00001C2.00001 7.26522 1.89465 7.51958 1.70711 7.70711C1.51958 7.89465 1.26522 8.00001 1.00001 8.00001Z" fill="#303030"/>
<path d="M7 23.9998H5C3.67441 23.9983 2.40356 23.471 1.46622 22.5336C0.528882 21.5963 0.00158786 20.3254 0 18.9999V16.9999C0 16.7346 0.105357 16.4803 0.292893 16.2928C0.48043 16.1052 0.734784 15.9999 1 15.9999C1.26522 15.9999 1.51957 16.1052 1.70711 16.2928C1.89464 16.4803 2 16.7346 2 16.9999V18.9999C2 19.7955 2.31607 20.5586 2.87868 21.1212C3.44129 21.6838 4.20435 21.9999 5 21.9999H7C7.26522 21.9999 7.51957 22.1052 7.70711 22.2927C7.89464 22.4803 8 22.7346 8 22.9998C8 23.2651 7.89464 23.5194 7.70711 23.707C7.51957 23.8945 7.26522 23.9998 7 23.9998Z" fill="#303030"/>
<path d="M22.9998 8C22.7346 8 22.4803 7.89464 22.2927 7.70711C22.1052 7.51957 21.9999 7.26522 21.9999 7V5C21.9999 4.20435 21.6838 3.44129 21.1212 2.87868C20.5586 2.31607 19.7955 2 18.9999 2H16.9999C16.7346 2 16.4803 1.89464 16.2928 1.70711C16.1052 1.51957 15.9999 1.26522 15.9999 1C15.9999 0.734784 16.1052 0.48043 16.2928 0.292893C16.4803 0.105357 16.7346 0 16.9999 0H18.9999C20.3254 0.00158786 21.5963 0.528882 22.5336 1.46622C23.471 2.40356 23.9983 3.67441 23.9998 5V7C23.9998 7.26522 23.8945 7.51957 23.707 7.70711C23.5194 7.89464 23.2651 8 22.9998 8Z" fill="#303030"/>
<path fill-rule="evenodd" clip-rule="evenodd" d="M7.62939e-06 12C7.62939e-06 11.4477 0.447723 11 1.00001 11H23C23.5523 11 24 11.4477 24 12C24 12.5523 23.5523 13 23 13H1.00001C0.447723 13 7.62939e-06 12.5523 7.62939e-06 12Z" fill="#303030"/>
</g>
<defs>
<clipPath id="clip0_943_11975">
<rect width="24" height="24" fill="white"/>
</clipPath>
</defs>
</svg>
