<svg width="24" height="24" viewBox="0 0 24 24" fill="none" xmlns="http://www.w3.org/2000/svg">
<g clip-path="url(#clip0_514_4950)">
<path fill-rule="evenodd" clip-rule="evenodd" d="M6 12C6 11.4477 6.44772 11 7 11L8.25 11C8.80228 11 9.25 11.4477 9.25 12C9.25 12.5523 8.80228 13 8.25 13L7 13C6.44772 13 6 12.5523 6 12ZM9.75 12C9.75 11.4477 10.1977 11 10.75 11L13.25 11C13.8023 11 14.25 11.4477 14.25 12C14.25 12.5523 13.8023 13 13.25 13L10.75 13C10.1977 13 9.75 12.5523 9.75 12ZM14.75 12C14.75 11.4477 15.1977 11 15.75 11L17 11C17.5523 11 18 11.4477 18 12C18 12.5523 17.5523 13 17 13L15.75 13C15.1977 13 14.75 12.5523 14.75 12Z" fill="#303030"/>
<path fill-rule="evenodd" clip-rule="evenodd" d="M8 0H16C17.3256 0.00158786 18.5964 0.528882 19.5338 1.46622C20.4711 2.40356 20.9984 3.67441 21 5V10C21 10.5523 20.5523 11 20 11C19.4477 11 19 10.5523 19 10V5C19 4.20435 18.6839 3.44129 18.1213 2.87868C17.5587 2.31607 16.7956 2 16 2H8C7.20435 2 6.44129 2.31607 5.87868 2.87868C5.31607 3.44129 5 4.20435 5 5V10C5 10.5523 4.55228 11 4 11C3.44772 11 3 10.5523 3 10V5C3.00159 3.67441 3.52888 2.40356 4.46622 1.46622C5.40356 0.528882 6.67441 0.00158786 8 0ZM4 13C3.44772 13 3 13.4477 3 14V23C3.00014 23.1819 3.04989 23.3603 3.14388 23.516C3.23788 23.6717 3.37256 23.7989 3.53344 23.8837C3.69431 23.9686 3.87529 24.008 4.05688 23.9976C4.23847 23.9873 4.4138 23.9276 4.564 23.825L6.67 22.386L8.776 23.825C8.94239 23.9389 9.13934 23.9999 9.341 23.9999C9.54266 23.9999 9.73961 23.9389 9.906 23.825L12.006 22.386L14.106 23.825C14.2725 23.9392 14.4696 24.0003 14.6715 24.0003C14.8734 24.0003 15.0705 23.9392 15.237 23.825L17.337 22.387L19.437 23.824C19.5871 23.9263 19.7623 23.9857 19.9436 23.996C20.125 24.0062 20.3057 23.9669 20.4664 23.8821C20.627 23.7974 20.7616 23.6706 20.8556 23.5151C20.9496 23.3597 20.9996 23.1816 21 23V14C21 13.4477 20.5523 13 20 13C19.4477 13 19 13.4477 19 14V21.1L17.9 20.348C17.7334 20.2336 17.5361 20.1724 17.334 20.1724C17.1319 20.1724 16.9346 20.2336 16.768 20.348L14.668 21.787L12.568 20.348C12.4015 20.2338 12.2044 20.1727 12.0025 20.1727C11.8006 20.1727 11.6035 20.2338 11.437 20.348L9.337 21.787L7.237 20.348C7.07071 20.2343 6.87396 20.1734 6.6725 20.1734C6.47105 20.1734 6.27429 20.2343 6.108 20.348L5 21.1V14C5 13.4477 4.55228 13 4 13Z" fill="#303030"/>
</g>
<defs>
<clipPath id="clip0_514_4950">
<rect width="24" height="24" fill="white"/>
</clipPath>
</defs>
</svg>
