<svg width="24" height="24" viewBox="0 0 24 24" fill="none" xmlns="http://www.w3.org/2000/svg">
<g clip-path="url(#clip0_1143_14350)">
<path d="M22.535 8.46003C22.0715 7.99505 21.5205 7.62659 20.9137 7.37599C20.3069 7.12538 19.6565 6.99759 19 7.00003H2.79997L7.09997 2.70003C7.28721 2.51199 7.39209 2.25727 7.39152 1.99191C7.39096 1.72654 7.285 1.47227 7.09697 1.28503C6.90893 1.09778 6.65421 0.992909 6.38884 0.993471C6.12348 0.994034 5.86921 1.09999 5.68197 1.28803L0.731966 6.23703C0.263288 6.70585 0 7.34162 0 8.00453C0 8.66744 0.263288 9.30321 0.731966 9.77203L5.68197 14.723C5.77481 14.8161 5.88508 14.89 6.00649 14.9405C6.1279 14.991 6.25806 15.0171 6.38955 15.0173C6.52104 15.0175 6.65128 14.9918 6.77283 14.9416C6.89438 14.8915 7.00486 14.8179 7.09797 14.725C7.19107 14.6322 7.26498 14.5219 7.31547 14.4005C7.36596 14.2791 7.39204 14.1489 7.39223 14.0174C7.39242 13.886 7.3667 13.7557 7.31655 13.6342C7.26641 13.5126 7.19281 13.4021 7.09997 13.309L2.78797 9.00003H19C19.7956 9.00003 20.5587 9.3161 21.1213 9.87871C21.6839 10.4413 22 11.2044 22 12V19C22 19.7957 21.6839 20.5587 21.1213 21.1213C20.5587 21.684 19.7956 22 19 22H4.99997C4.73475 22 4.4804 22.1054 4.29286 22.2929C4.10532 22.4805 3.99997 22.7348 3.99997 23C3.99997 23.2652 4.10532 23.5196 4.29286 23.7071C4.4804 23.8947 4.73475 24 4.99997 24H19C20.3256 23.9984 21.5964 23.4711 22.5337 22.5338C23.4711 21.5965 23.9984 20.3256 24 19V12C24.0022 11.3424 23.8738 10.6908 23.6224 10.0832C23.3709 9.47549 23.0013 8.92378 22.535 8.46003Z" fill="#303030"/>
</g>
<defs>
<clipPath id="clip0_1143_14350">
<rect width="24" height="24" fill="white"/>
</clipPath>
</defs>
</svg>
