<svg width="24" height="24" viewBox="0 0 24 24" fill="none" xmlns="http://www.w3.org/2000/svg">
<g clip-path="url(#clip0_1279_46247)">
<path d="M2.44602 5.825C2.21793 5.23887 2.06798 4.62527 2.00002 4C2.00002 2.93913 2.42145 1.92172 3.17159 1.17157C3.92174 0.421427 4.93916 0 6.00002 0C7.06089 0 8.0783 0.421427 8.82845 1.17157C9.57859 1.92172 10 2.93913 10 4C9.93207 4.62527 9.78211 5.23887 9.55402 5.825C9.29959 6.53042 9.11406 7.25882 9.00002 8H3.00002C2.88598 7.25882 2.70045 6.53042 2.44602 5.825ZM9.51102 10H2.48902C2.27202 10.5 2.00902 11.012 1.73602 11.537C0.716407 13.1873 0.12009 15.0638 2.02777e-05 17C-0.0188615 18.6199 0.31771 20.2243 0.98602 21.7C1.3091 22.3881 1.82156 22.9699 2.46339 23.3773C3.10523 23.7846 3.84984 24.0006 4.61002 24H7.39002C8.1502 24.0006 8.89482 23.7846 9.53665 23.3773C10.1785 22.9699 10.6909 22.3881 11.014 21.7C11.6823 20.2243 12.0189 18.6199 12 17C11.88 15.0638 11.2836 13.1873 10.264 11.537C9.99102 11.012 9.72802 10.5 9.51102 10ZM24 16C23.999 17.3587 23.6521 18.6948 22.9922 19.8825C22.3322 21.0702 21.3808 22.0704 20.2276 22.7889C19.0744 23.5074 17.7573 23.9205 16.4003 23.9895C15.0433 24.0584 13.6911 23.7809 12.471 23.183C12.6031 22.9765 12.7223 22.7621 12.828 22.541C13.6196 20.8021 14.0197 18.9105 14 17C13.8881 14.7416 13.2141 12.5469 12.039 10.615C11.83 10.215 11.632 9.82 11.454 9.434C12.6519 8.59868 14.0561 8.10805 15.5135 8.01555C16.971 7.92304 18.4259 8.23221 19.7198 8.90938C21.0137 9.58654 22.097 10.6058 22.8517 11.856C23.6064 13.1063 24.0036 14.5396 24 16ZM18 15C18 14.8022 17.9414 14.6089 17.8315 14.4444C17.7216 14.28 17.5654 14.1518 17.3827 14.0761C17.2 14.0004 16.9989 13.9806 16.8049 14.0192C16.611 14.0578 16.4328 14.153 16.2929 14.2929C16.1531 14.4327 16.0578 14.6109 16.0192 14.8049C15.9807 14.9989 16.0005 15.2 16.0761 15.3827C16.1518 15.5654 16.28 15.7216 16.4445 15.8315C16.6089 15.9414 16.8022 16 17 16C17.2652 16 17.5196 15.8946 17.7071 15.7071C17.8947 15.5196 18 15.2652 18 15ZM20 12C20 11.8022 19.9414 11.6089 19.8315 11.4444C19.7216 11.28 19.5654 11.1518 19.3827 11.0761C19.2 11.0004 18.9989 10.9806 18.8049 11.0192C18.611 11.0578 18.4328 11.153 18.2929 11.2929C18.1531 11.4327 18.0578 11.6109 18.0192 11.8049C17.9807 11.9989 18.0005 12.2 18.0761 12.3827C18.1518 12.5654 18.28 12.7216 18.4445 12.8315C18.6089 12.9414 18.8022 13 19 13C19.2652 13 19.5196 12.8946 19.7071 12.7071C19.8947 12.5196 20 12.2652 20 12ZM22 15C22 14.8022 21.9414 14.6089 21.8315 14.4444C21.7216 14.28 21.5654 14.1518 21.3827 14.0761C21.2 14.0004 20.9989 13.9806 20.8049 14.0192C20.611 14.0578 20.4328 14.153 20.2929 14.2929C20.1531 14.4327 20.0578 14.6109 20.0192 14.8049C19.9807 14.9989 20.0005 15.2 20.0761 15.3827C20.1518 15.5654 20.28 15.7216 20.4445 15.8315C20.6089 15.9414 20.8022 16 21 16C21.2652 16 21.5196 15.8946 21.7071 15.7071C21.8947 15.5196 22 15.2652 22 15Z" fill="#303030"/>
</g>
<defs>
<clipPath id="clip0_1279_46247">
<rect width="24" height="24" fill="white"/>
</clipPath>
</defs>
</svg>
