<svg width="24" height="24" viewBox="0 0 24 24" fill="none" xmlns="http://www.w3.org/2000/svg">
<g clip-path="url(#clip0_482_4384)">
<path d="M23.6788 11.4081C22.8945 9.56645 21.664 7.94907 20.0984 6.70186C18.5327 5.45465 16.6812 4.61686 14.7108 4.26409C14.9247 3.8078 15.0199 3.30491 14.9877 2.80203C14.9555 2.29914 14.7968 1.81252 14.5265 1.38725C14.2562 0.961985 13.8829 0.611833 13.4412 0.369237C12.9995 0.126641 12.5037 -0.000549316 11.9998 -0.000549316C11.4959 -0.000549316 11.0001 0.126641 10.5585 0.369237C10.1168 0.611833 9.74347 0.961985 9.47313 1.38725C9.20279 1.81252 9.04416 2.29914 9.01194 2.80203C8.97973 3.30491 9.07496 3.8078 9.28882 4.26409C7.31903 4.61741 5.46815 5.45543 3.90308 6.70261C2.338 7.94978 1.10794 9.56688 0.323819 11.4081C0.063043 12.023 -0.0412084 12.693 0.0203951 13.358C0.0819986 14.0231 0.307535 14.6625 0.676819 15.2191C1.03328 15.7536 1.51356 16.1941 2.07682 16.5031L2.67682 19.8751C2.88104 21.0319 3.48661 22.0797 4.38704 22.8342C5.28747 23.5887 6.42509 24.0015 7.59982 24.0001H16.3998C17.5745 24.0017 18.7121 23.5889 19.6124 22.8343C20.5127 22.0798 21.118 21.0319 21.3218 19.8751L21.9218 16.5041C22.4854 16.1955 22.9658 15.7549 23.3218 15.2201C23.6917 14.6637 23.9179 14.0242 23.9802 13.359C24.0425 12.6938 23.9389 12.0235 23.6788 11.4081ZM11.9998 2.00009C12.265 2.00009 12.5194 2.10544 12.7069 2.29298C12.8945 2.48052 12.9998 2.73487 12.9998 3.00009C12.9998 3.2653 12.8945 3.51966 12.7069 3.70719C12.5194 3.89473 12.265 4.00009 11.9998 4.00009C11.7346 4.00009 11.4802 3.89473 11.2927 3.70719C11.1052 3.51966 10.9998 3.2653 10.9998 3.00009C10.9998 2.73487 11.1052 2.48052 11.2927 2.29298C11.4802 2.10544 11.7346 2.00009 11.9998 2.00009ZM19.3568 19.5251C19.2334 20.2194 18.8694 20.848 18.3286 21.3006C17.7879 21.7532 17.105 22.0009 16.3998 22.0001H7.59982C6.89517 22.0002 6.21298 21.7522 5.67285 21.2996C5.13273 20.8471 4.76913 20.2189 4.64582 19.5251L4.27482 17.4451C4.82987 17.8338 5.50017 18.0231 6.17656 17.9823C6.85295 17.9414 7.49559 17.6728 7.99982 17.2201C8.54883 17.7141 9.26126 17.9875 9.99982 17.9875C10.7384 17.9875 11.4508 17.7141 11.9998 17.2201C12.5488 17.7141 13.2613 17.9875 13.9998 17.9875C14.7384 17.9875 15.4508 17.7141 15.9998 17.2201C16.5043 17.6735 17.1475 17.9426 17.8245 17.9835C18.5016 18.0243 19.1725 17.8345 19.7278 17.4451L19.3568 19.5251ZM21.6568 14.1121C21.4774 14.3874 21.2316 14.613 20.942 14.7682C20.6524 14.9234 20.3284 15.0032 19.9998 15.0001C19.7635 15.0104 19.5322 15.0716 19.3216 15.1795C19.1111 15.2873 18.9263 15.4393 18.7798 15.6251C18.6851 15.7403 18.566 15.833 18.4311 15.8967C18.2963 15.9604 18.149 15.9934 17.9998 15.9934C17.8507 15.9934 17.7034 15.9604 17.5685 15.8967C17.4337 15.833 17.3146 15.7403 17.2198 15.6251C17.0773 15.4364 16.8929 15.2834 16.6812 15.178C16.4695 15.0726 16.2363 15.0177 15.9998 15.0177C15.7633 15.0177 15.5301 15.0726 15.3184 15.178C15.1067 15.2834 14.9224 15.4364 14.7798 15.6251C14.6851 15.7403 14.566 15.833 14.4311 15.8967C14.2963 15.9604 14.149 15.9934 13.9998 15.9934C13.8507 15.9934 13.7034 15.9604 13.5685 15.8967C13.4337 15.833 13.3146 15.7403 13.2198 15.6251C13.0773 15.4364 12.8929 15.2834 12.6812 15.178C12.4695 15.0726 12.2363 15.0177 11.9998 15.0177C11.7633 15.0177 11.5301 15.0726 11.3184 15.178C11.1067 15.2834 10.9224 15.4364 10.7798 15.6251C10.6851 15.7403 10.566 15.833 10.4311 15.8967C10.2963 15.9604 10.149 15.9934 9.99982 15.9934C9.85067 15.9934 9.70338 15.9604 9.56852 15.8967C9.43365 15.833 9.31457 15.7403 9.21982 15.6251C9.07728 15.4364 8.89292 15.2834 8.68123 15.178C8.46954 15.0726 8.23629 15.0177 7.99982 15.0177C7.76335 15.0177 7.5301 15.0726 7.31841 15.178C7.10672 15.2834 6.92236 15.4364 6.77982 15.6251C6.68507 15.7403 6.56599 15.833 6.43112 15.8967C6.29626 15.9604 6.14896 15.9934 5.99982 15.9934C5.85067 15.9934 5.70338 15.9604 5.56852 15.8967C5.43365 15.833 5.31457 15.7403 5.21982 15.6251C5.07345 15.4392 4.88867 15.2871 4.67811 15.1793C4.46755 15.0714 4.23618 15.0103 3.99982 15.0001C3.67142 15.0031 3.34756 14.9233 3.05814 14.7681C2.76871 14.6129 2.52305 14.3873 2.34382 14.1121C2.15489 13.8314 2.03966 13.5077 2.00872 13.1707C1.97779 12.8338 2.03216 12.4945 2.16682 12.1841C5.43382 3.98409 18.5668 3.98409 21.8348 12.1841C21.9695 12.4945 22.0238 12.8338 21.9929 13.1707C21.962 13.5077 21.8467 13.8314 21.6578 14.1121H21.6568Z" fill="#303030"/>
</g>
<defs>
<clipPath id="clip0_482_4384">
<rect width="24" height="24" fill="white"/>
</clipPath>
</defs>
</svg>
