<svg width="40" height="40" viewBox="0 0 40 40" fill="none" xmlns="http://www.w3.org/2000/svg">
<path d="M0 16C0 7.16344 7.16344 0 16 0H24C32.8366 0 40 7.16344 40 16V24C40 32.8366 32.8366 40 24 40H16C7.16344 40 0 32.8366 0 24V16Z" fill="#DBD5FF"/>
<g clip-path="url(#clip0_1211_21354)">
<path d="M28.3332 18.3333C28.2959 19.917 27.9019 21.4719 27.1805 22.8823C26.4591 24.2926 25.4289 25.5221 24.1665 26.4792V29.1667C24.1665 29.3877 24.0787 29.5996 23.9224 29.7559C23.7661 29.9122 23.5542 30 23.3332 30C23.1122 30 22.9002 29.9122 22.7439 29.7559C22.5876 29.5996 22.4998 29.3877 22.4998 29.1667V11.6667C22.4924 11.3536 22.5779 11.0453 22.7457 10.7808C22.9135 10.5163 23.1559 10.3075 23.4423 10.1808C23.7714 10.047 24.1323 10.0119 24.4809 10.0798C24.8296 10.1477 25.1509 10.3157 25.4057 10.5633C27.3385 12.6841 28.386 15.4644 28.3332 18.3333ZM19.1665 10C18.9455 10 18.7335 10.0878 18.5772 10.2441C18.421 10.4004 18.3332 10.6123 18.3332 10.8333V15.8333C18.331 16.3486 18.1698 16.8505 17.8714 17.2706C17.5731 17.6906 17.1523 18.0083 16.6665 18.18V10.8333C16.6665 10.6123 16.5787 10.4004 16.4224 10.2441C16.2661 10.0878 16.0542 10 15.8332 10C15.6122 10 15.4002 10.0878 15.2439 10.2441C15.0876 10.4004 14.9998 10.6123 14.9998 10.8333V18.18C14.5141 18.0083 14.0932 17.6906 13.7949 17.2706C13.4966 16.8505 13.3353 16.3486 13.3332 15.8333V10.8333C13.3332 10.6123 13.2454 10.4004 13.0891 10.2441C12.9328 10.0878 12.7209 10 12.4998 10C12.2788 10 12.0669 10.0878 11.9106 10.2441C11.7543 10.4004 11.6665 10.6123 11.6665 10.8333V15.8333C11.6677 16.7935 11.9999 17.7239 12.6071 18.4677C13.2143 19.2115 14.0593 19.7233 14.9998 19.9167V29.1667C14.9998 29.3877 15.0876 29.5996 15.2439 29.7559C15.4002 29.9122 15.6122 30 15.8332 30C16.0542 30 16.2661 29.9122 16.4224 29.7559C16.5787 29.5996 16.6665 29.3877 16.6665 29.1667V19.9167C17.607 19.7233 18.452 19.2115 19.0592 18.4677C19.6664 17.7239 19.9986 16.7935 19.9998 15.8333V10.8333C19.9998 10.6123 19.912 10.4004 19.7558 10.2441C19.5995 10.0878 19.3875 10 19.1665 10V10Z" fill="#3D3D3D"/>
</g>
<defs>
<clipPath id="clip0_1211_21354">
<rect width="20" height="20" fill="white" transform="translate(10 10)"/>
</clipPath>
</defs>
</svg>
