<svg width="40" height="40" viewBox="0 0 40 40" fill="none" xmlns="http://www.w3.org/2000/svg">
<path d="M0 16C0 7.16344 7.16344 0 16 0H24C32.8366 0 40 7.16344 40 16V24C40 32.8366 32.8366 40 24 40H16C7.16344 40 0 32.8366 0 24V16Z" fill="#D1D1D1"/>
<path d="M11.6667 21.6667C12.5872 21.6667 13.3334 20.9205 13.3334 20C13.3334 19.0795 12.5872 18.3333 11.6667 18.3333C10.7462 18.3333 10 19.0795 10 20C10 20.9205 10.7462 21.6667 11.6667 21.6667Z" fill="#3D3D3D"/>
<path d="M19.9999 21.6667C20.9204 21.6667 21.6666 20.9205 21.6666 20C21.6666 19.0795 20.9204 18.3333 19.9999 18.3333C19.0795 18.3333 18.3333 19.0795 18.3333 20C18.3333 20.9205 19.0795 21.6667 19.9999 21.6667Z" fill="#303030"/>
<path d="M28.3332 21.6667C29.2537 21.6667 29.9999 20.9205 29.9999 20C29.9999 19.0795 29.2537 18.3333 28.3332 18.3333C27.4127 18.3333 26.6665 19.0795 26.6665 20C26.6665 20.9205 27.4127 21.6667 28.3332 21.6667Z" fill="#303030"/>
</svg>
