<svg width="40" height="40" viewBox="0 0 40 40" fill="none" xmlns="http://www.w3.org/2000/svg">
<path d="M0 16C0 7.16344 7.16344 0 16 0H24C32.8366 0 40 7.16344 40 16V24C40 32.8366 32.8366 40 24 40H16C7.16344 40 0 32.8366 0 24V16Z" fill="#FCE697"/>
<g clip-path="url(#clip0_1211_21353)">
<path d="M12.0382 14.8542C11.8482 14.3657 11.7232 13.8544 11.6666 13.3333C11.6666 12.4493 12.0178 11.6014 12.6429 10.9763C13.268 10.3512 14.1158 10 14.9999 10C15.884 10 16.7318 10.3512 17.3569 10.9763C17.982 11.6014 18.3332 12.4493 18.3332 13.3333C18.2766 13.8544 18.1516 14.3657 17.9616 14.8542C17.7495 15.442 17.5949 16.049 17.4999 16.6667H12.4999C12.4049 16.049 12.2503 15.442 12.0382 14.8542ZM17.9257 18.3333H12.0741C11.8932 18.75 11.6741 19.1767 11.4466 19.6142C10.5969 20.9894 10.1 22.5532 9.99989 24.1667C9.98416 25.5166 10.2646 26.8535 10.8216 28.0833C11.0908 28.6568 11.5178 29.1416 12.0527 29.481C12.5876 29.8205 13.2081 30.0005 13.8416 30H16.1582C16.7917 30.0005 17.4122 29.8205 17.9471 29.481C18.4819 29.1416 18.909 28.6568 19.1782 28.0833C19.7352 26.8535 20.0156 25.5166 19.9999 24.1667C19.8998 22.5532 19.4029 20.9894 18.5532 19.6142C18.3257 19.1767 18.1066 18.75 17.9257 18.3333ZM29.9999 23.3333C29.999 24.4656 29.71 25.579 29.16 26.5688C28.61 27.5585 27.8172 28.392 26.8562 28.9907C25.8952 29.5895 24.7976 29.9338 23.6668 29.9912C22.536 30.0487 21.4091 29.8174 20.3924 29.3192C20.5024 29.1471 20.6018 28.9684 20.6899 28.7842C21.3495 27.3351 21.683 25.7588 21.6666 24.1667C21.5733 22.2847 21.0116 20.4557 20.0324 18.8458C19.8582 18.5125 19.6932 18.1833 19.5449 17.8617C20.5431 17.1656 21.7133 16.7567 22.9278 16.6796C24.1423 16.6025 25.3548 16.8602 26.433 17.4245C27.5113 17.9888 28.414 18.8381 29.0429 19.88C29.6719 20.9219 30.0029 22.1163 29.9999 23.3333ZM24.9999 22.5C24.9999 22.3352 24.951 22.1741 24.8595 22.037C24.7679 21.9 24.6377 21.7932 24.4855 21.7301C24.3332 21.667 24.1656 21.6505 24.004 21.6827C23.8423 21.7148 23.6939 21.7942 23.5773 21.9107C23.4608 22.0273 23.3814 22.1758 23.3492 22.3374C23.3171 22.4991 23.3336 22.6666 23.3967 22.8189C23.4597 22.9712 23.5665 23.1013 23.7036 23.1929C23.8406 23.2845 24.0017 23.3333 24.1666 23.3333C24.3876 23.3333 24.5995 23.2455 24.7558 23.0893C24.9121 22.933 24.9999 22.721 24.9999 22.5ZM26.6666 20C26.6666 19.8352 26.6177 19.6741 26.5261 19.537C26.4346 19.4 26.3044 19.2932 26.1521 19.2301C25.9999 19.167 25.8323 19.1505 25.6707 19.1827C25.509 19.2148 25.3605 19.2942 25.244 19.4107C25.1274 19.5273 25.0481 19.6758 25.0159 19.8374C24.9838 19.9991 25.0003 20.1666 25.0633 20.3189C25.1264 20.4712 25.2332 20.6013 25.3703 20.6929C25.5073 20.7845 25.6684 20.8333 25.8332 20.8333C26.0542 20.8333 26.2662 20.7455 26.4225 20.5893C26.5788 20.433 26.6666 20.221 26.6666 20ZM28.3332 22.5C28.3332 22.3352 28.2844 22.1741 28.1928 22.037C28.1012 21.9 27.9711 21.7932 27.8188 21.7301C27.6665 21.667 27.499 21.6505 27.3373 21.6827C27.1757 21.7148 27.0272 21.7942 26.9106 21.9107C26.7941 22.0273 26.7147 22.1758 26.6826 22.3374C26.6504 22.4991 26.6669 22.6666 26.73 22.8189C26.7931 22.9712 26.8999 23.1013 27.0369 23.1929C27.174 23.2845 27.3351 23.3333 27.4999 23.3333C27.7209 23.3333 27.9329 23.2455 28.0892 23.0893C28.2454 22.933 28.3332 22.721 28.3332 22.5Z" fill="#3D3D3D"/>
</g>
<defs>
<clipPath id="clip0_1211_21353">
<rect width="20" height="20" fill="white" transform="translate(10 10)"/>
</clipPath>
</defs>
</svg>
