<svg width="40" height="40" viewBox="0 0 40 40" fill="none" xmlns="http://www.w3.org/2000/svg">
<path d="M0 16C0 7.16344 7.16344 0 16 0H24C32.8366 0 40 7.16344 40 16V24C40 32.8366 32.8366 40 24 40H16C7.16344 40 0 32.8366 0 24V16Z" fill="#FEC9AA"/>
<g clip-path="url(#clip0_1211_21351)">
<path d="M17.5 17.9166C17.5 18.3287 17.3778 18.7315 17.1489 19.0741C16.92 19.4167 16.5946 19.6837 16.2139 19.8414C15.8332 19.9991 15.4144 20.0403 15.0102 19.9599C14.6061 19.8795 14.2349 19.6811 13.9435 19.3898C13.6522 19.0984 13.4537 18.7272 13.3734 18.3231C13.293 17.9189 13.3342 17.5 13.4919 17.1194C13.6496 16.7387 13.9166 16.4133 14.2592 16.1844C14.6018 15.9555 15.0046 15.8333 15.4167 15.8333C15.9692 15.8333 16.4991 16.0528 16.8898 16.4435C17.2805 16.8342 17.5 17.3641 17.5 17.9166ZM30 20V18.3333C30 17.4492 29.6488 16.6014 29.0237 15.9763C28.3986 15.3511 27.5507 15 26.6667 15H22.5C21.6159 15 20.7681 15.3511 20.143 15.9763C19.5179 16.6014 19.1667 17.4492 19.1667 18.3333V20H30ZM11.6667 21.6666V12.5C11.6667 12.2789 11.5789 12.067 11.4226 11.9107C11.2663 11.7544 11.0543 11.6666 10.8333 11.6666C10.6123 11.6666 10.4004 11.7544 10.2441 11.9107C10.0878 12.067 10 12.2789 10 12.5V27.5C10 27.721 10.0878 27.9329 10.2441 28.0892C10.4004 28.2455 10.6123 28.3333 10.8333 28.3333C11.0543 28.3333 11.2663 28.2455 11.4226 28.0892C11.5789 27.9329 11.6667 27.721 11.6667 27.5V25.8333H28.3333V27.5C28.3333 27.721 28.4211 27.9329 28.5774 28.0892C28.7337 28.2455 28.9457 28.3333 29.1667 28.3333C29.3877 28.3333 29.5996 28.2455 29.7559 28.0892C29.9122 27.9329 30 27.721 30 27.5V21.6666H11.6667Z" fill="#3D3D3D"/>
</g>
<defs>
<clipPath id="clip0_1211_21351">
<rect width="20" height="20" fill="white" transform="translate(10 10)"/>
</clipPath>
</defs>
</svg>
