<svg width="40" height="40" viewBox="0 0 40 40" fill="none" xmlns="http://www.w3.org/2000/svg">
<path d="M0 16C0 7.16344 7.16344 0 16 0H24C32.8366 0 40 7.16344 40 16V24C40 32.8366 32.8366 40 24 40H16C7.16344 40 0 32.8366 0 24V16Z" fill="#EAF6A0"/>
<g clip-path="url(#clip0_1211_21352)">
<path d="M20.0001 21.6667C23.5635 21.6667 26.3618 16.4233 27.221 13.2875C27.0014 12.7017 26.6519 12.1732 26.1986 11.7419C25.7454 11.3107 25.2003 10.9878 24.6043 10.7975C23.1196 10.2971 21.5667 10.0281 20.0001 10C18.4337 10.0283 16.8809 10.297 15.396 10.7967C14.8 10.9872 14.2549 11.3103 13.8017 11.7417C13.3485 12.1731 12.999 12.7016 12.7793 13.2875C13.6385 16.4233 16.4368 21.6667 20.0001 21.6667ZM18.3335 12.5H21.6668C21.8878 12.5 22.0998 12.5878 22.2561 12.7441C22.4123 12.9004 22.5001 13.1123 22.5001 13.3333C22.5001 13.5543 22.4123 13.7663 22.2561 13.9226C22.0998 14.0789 21.8878 14.1667 21.6668 14.1667H18.3335C18.1125 14.1667 17.9005 14.0789 17.7442 13.9226C17.5879 13.7663 17.5001 13.5543 17.5001 13.3333C17.5001 13.1123 17.5879 12.9004 17.7442 12.7441C17.9005 12.5878 18.1125 12.5 18.3335 12.5ZM27.5001 17.1542C25.9243 20.2692 23.3093 23.3333 20.0001 23.3333C16.691 23.3333 14.076 20.2692 12.5001 17.1542V23.4808C12.5002 24.5278 12.8944 25.5363 13.6043 26.3058L12.5635 28.8508C12.5203 28.9524 12.4977 29.0616 12.4971 29.172C12.4964 29.2824 12.5177 29.3918 12.5598 29.4939C12.6018 29.596 12.6636 29.6887 12.7418 29.7667C12.8199 29.8447 12.9128 29.9063 13.015 29.9481C13.1171 29.9899 13.2266 30.011 13.337 30.0101C13.4474 30.0092 13.5565 29.9864 13.658 29.943C13.7595 29.8996 13.8514 29.8365 13.9283 29.7573C14.0052 29.6781 14.0656 29.5844 14.106 29.4817L15.0001 27.2875C16.5653 28.0125 18.2756 28.3703 20.0001 28.3333C21.7248 28.3706 23.435 28.0128 25.0001 27.2875L25.8976 29.4817C25.9391 29.583 26 29.6752 26.0771 29.753C26.1541 29.8307 26.2457 29.8926 26.3467 29.9349C26.4476 29.9773 26.5559 29.9994 26.6654 29.9999C26.7749 30.0004 26.8834 29.9793 26.9847 29.9379C27.0861 29.8965 27.1782 29.8355 27.256 29.7585C27.3338 29.6814 27.3956 29.5898 27.438 29.4889C27.4804 29.3879 27.5024 29.2796 27.5029 29.1701C27.5035 29.0607 27.4824 28.9522 27.441 28.8508L26.3993 26.3058C27.108 25.5358 27.501 24.5273 27.5001 23.4808V17.1542ZM20.0001 26.6667C19.8353 26.6667 19.6742 26.6178 19.5372 26.5262C19.4001 26.4347 19.2933 26.3045 19.2302 26.1522C19.1672 26 19.1507 25.8324 19.1828 25.6708C19.215 25.5091 19.2943 25.3606 19.4109 25.2441C19.5274 25.1275 19.6759 25.0482 19.8376 25.016C19.9992 24.9839 20.1668 25.0004 20.319 25.0634C20.4713 25.1265 20.6015 25.2333 20.693 25.3704C20.7846 25.5074 20.8335 25.6685 20.8335 25.8333C20.8335 26.0543 20.7457 26.2663 20.5894 26.4226C20.4331 26.5789 20.2212 26.6667 20.0001 26.6667Z" fill="#3D3D3D"/>
</g>
<defs>
<clipPath id="clip0_1211_21352">
<rect width="20" height="20" fill="white" transform="translate(10 10)"/>
</clipPath>
</defs>
</svg>
