<svg width="24" height="24" viewBox="0 0 24 24" fill="none" xmlns="http://www.w3.org/2000/svg">
<g clip-path="url(#clip0_401_4405)">
<path d="M17.7208 3L16.3078 1.168C16.0263 0.805806 15.6661 0.512417 15.2545 0.310054C14.8428 0.107691 14.3905 0.00166304 13.9318 0L10.0678 0C9.60911 0.00166304 9.1568 0.107691 8.74514 0.310054C8.33349 0.512417 7.97328 0.805806 7.69181 1.168L6.27881 3H17.7208Z" fill="#303030"/>
<path d="M12.0002 18C14.2094 18 16.0002 16.2092 16.0002 14.0001C16.0002 11.7909 14.2094 10.0001 12.0002 10.0001C9.7911 10.0001 8.00024 11.7909 8.00024 14.0001C8.00024 16.2092 9.7911 18 12.0002 18Z" fill="#303030"/>
<path d="M19 4.99994H5C3.67441 5.00153 2.40356 5.52882 1.46622 6.46616C0.528882 7.40349 0.00158786 8.67434 0 9.99993L0 18.9999C0.00158786 20.3255 0.528882 21.5964 1.46622 22.5337C2.40356 23.471 3.67441 23.9983 5 23.9999H19C20.3256 23.9983 21.5964 23.471 22.5338 22.5337C23.4711 21.5964 23.9984 20.3255 24 18.9999V9.99993C23.9984 8.67434 23.4711 7.40349 22.5338 6.46616C21.5964 5.52882 20.3256 5.00153 19 4.99994ZM12 19.9999C10.8133 19.9999 9.65327 19.648 8.66658 18.9887C7.67988 18.3294 6.91085 17.3924 6.45672 16.296C6.0026 15.1997 5.88378 13.9933 6.11529 12.8294C6.3468 11.6655 6.91824 10.5964 7.75736 9.75729C8.59647 8.91818 9.66557 8.34673 10.8295 8.11522C11.9933 7.88371 13.1997 8.00253 14.2961 8.45666C15.3925 8.91078 16.3295 9.67982 16.9888 10.6665C17.6481 11.6532 18 12.8132 18 13.9999C17.9984 15.5907 17.3658 17.1159 16.2409 18.2408C15.116 19.3657 13.5908 19.9983 12 19.9999Z" fill="#303030"/>
</g>
<defs>
<clipPath id="clip0_401_4405">
<rect width="24" height="24" fill="white"/>
</clipPath>
</defs>
</svg>
