<svg width="24" height="24" viewBox="0 0 24 24" fill="none" xmlns="http://www.w3.org/2000/svg">
<path d="M19.1401 12.9405C19.1801 12.6405 19.2001 12.3305 19.2001 12.0005C19.2001 11.6805 19.1801 11.3605 19.1301 11.0605L21.1601 9.48051C21.3401 9.34051 21.3901 9.07051 21.2801 8.87051L19.3601 5.55051C19.2401 5.33051 18.9901 5.26051 18.7701 5.33051L16.3801 6.29051C15.8801 5.91051 15.3501 5.59051 14.7601 5.35051L14.4001 2.81051C14.3601 2.57051 14.1601 2.40051 13.9201 2.40051H10.0801C9.84011 2.40051 9.65011 2.57051 9.61011 2.81051L9.25011 5.35051C8.66011 5.59051 8.12011 5.92051 7.63011 6.29051L5.24011 5.33051C5.02011 5.25051 4.77011 5.33051 4.65011 5.55051L2.74011 8.87051C2.62011 9.08051 2.66011 9.34051 2.86011 9.48051L4.89011 11.0605C4.84011 11.3605 4.80011 11.6905 4.80011 12.0005C4.80011 12.3105 4.82011 12.6405 4.87011 12.9405L2.84011 14.5205C2.66011 14.6605 2.61011 14.9305 2.72011 15.1305L4.64011 18.4505C4.76011 18.6705 5.01011 18.7405 5.23011 18.6705L7.62011 17.7105C8.12011 18.0905 8.65011 18.4105 9.24011 18.6505L9.60011 21.1905C9.65011 21.4305 9.84011 21.6005 10.0801 21.6005H13.9201C14.1601 21.6005 14.3601 21.4305 14.3901 21.1905L14.7501 18.6505C15.3401 18.4105 15.8801 18.0905 16.3701 17.7105L18.7601 18.6705C18.9801 18.7505 19.2301 18.6705 19.3501 18.4505L21.2701 15.1305C21.3901 14.9105 21.3401 14.6605 21.1501 14.5205L19.1401 12.9405ZM12.0001 15.6005C10.0201 15.6005 8.40011 13.9805 8.40011 12.0005C8.40011 10.0205 10.0201 8.40051 12.0001 8.40051C13.9801 8.40051 15.6001 10.0205 15.6001 12.0005C15.6001 13.9805 13.9801 15.6005 12.0001 15.6005Z" fill="#303030"/>
</svg>
