<svg width="20" height="20" viewBox="0 0 20 20" fill="none" xmlns="http://www.w3.org/2000/svg">
<g clip-path="url(#clip0_207_2489)">
<path d="M5.83342 19.9115C5.68515 19.8863 5.5385 19.8524 5.39425 19.8098L3.00342 19.0598C2.13885 18.8058 1.37958 18.2791 0.83891 17.5582C0.298245 16.8373 0.0051693 15.9609 0.00341797 15.0598V4.99984C0.00428449 4.31488 0.174003 3.64069 0.49755 3.03696C0.821097 2.43323 1.28849 1.91857 1.85837 1.53854C2.42824 1.15852 3.08301 0.924845 3.76473 0.858208C4.44644 0.791572 5.13407 0.894028 5.76675 1.15651L5.83342 1.18734V19.9115ZM17.2334 0.97234L17.2159 0.966506L14.9534 0.216506C14.6974 0.13349 14.434 0.0757148 14.1668 0.0440063V18.5957L15.8784 19.089C16.3689 19.2084 16.88 19.2148 17.3733 19.1078C17.8666 19.0008 18.3292 18.7832 18.7261 18.4713C19.123 18.1595 19.4439 17.7616 19.6646 17.3076C19.8853 16.8536 20 16.3554 20.0001 15.8507V4.89651C19.9988 4.0372 19.7324 3.19922 19.2373 2.49692C18.7421 1.79462 18.0424 1.2622 17.2334 0.97234ZM12.5001 0.158173C12.5001 0.158173 7.63092 1.55234 7.50008 1.56651V19.8998C7.58342 19.8823 12.5001 18.5365 12.5001 18.5365V0.158173Z" fill="#303030"/>
</g>
<defs>
<clipPath id="clip0_207_2489">
<rect width="20" height="20" fill="white"/>
</clipPath>
</defs>
</svg>
